{
    "asset" : {
        "generator" : "Khronos glTF Blender I/O v1.5.17",
        "version" : "2.0"
    },
    "scene" : 0,
    "scenes" : [
        {
            "name" : "Scene",
            "nodes" : [
                2
            ]
        }
    ],
    "nodes" : [
        {
            "name" : "Bone"
        },
        {
            "mesh" : 0,
            "name" : "YoYo",
            "skin" : 0
        },
        {
            "children" : [
                1,
                0
            ],
            "name" : "YoYoSkeleton"
        }
    ],
    "animations" : [
        {
            "channels" : [
                {
                    "sampler" : 0,
                    "target" : {
                        "node" : 0,
                        "path" : "translation"
                    }
                },
                {
                    "sampler" : 1,
                    "target" : {
                        "node" : 0,
                        "path" : "rotation"
                    }
                },
                {
                    "sampler" : 2,
                    "target" : {
                        "node" : 0,
                        "path" : "scale"
                    }
                },
                {
                    "sampler" : 3,
                    "target" : {
                        "node" : 2,
                        "path" : "translation"
                    }
                },
                {
                    "sampler" : 4,
                    "target" : {
                        "node" : 2,
                        "path" : "rotation"
                    }
                }
            ],
            "name" : "Attack_0",
            "samplers" : [
                {
                    "input" : 15,
                    "interpolation" : "LINEAR",
                    "output" : 16
                },
                {
                    "input" : 15,
                    "interpolation" : "LINEAR",
                    "output" : 17
                },
                {
                    "input" : 15,
                    "interpolation" : "LINEAR",
                    "output" : 18
                },
                {
                    "input" : 15,
                    "interpolation" : "LINEAR",
                    "output" : 19
                },
                {
                    "input" : 15,
                    "interpolation" : "LINEAR",
                    "output" : 20
                }
            ]
        },
        {
            "channels" : [
                {
                    "sampler" : 0,
                    "target" : {
                        "node" : 0,
                        "path" : "translation"
                    }
                },
                {
                    "sampler" : 1,
                    "target" : {
                        "node" : 0,
                        "path" : "rotation"
                    }
                },
                {
                    "sampler" : 2,
                    "target" : {
                        "node" : 0,
                        "path" : "scale"
                    }
                },
                {
                    "sampler" : 3,
                    "target" : {
                        "node" : 2,
                        "path" : "translation"
                    }
                },
                {
                    "sampler" : 4,
                    "target" : {
                        "node" : 2,
                        "path" : "rotation"
                    }
                }
            ],
            "name" : "Attack_1",
            "samplers" : [
                {
                    "input" : 21,
                    "interpolation" : "LINEAR",
                    "output" : 22
                },
                {
                    "input" : 21,
                    "interpolation" : "LINEAR",
                    "output" : 23
                },
                {
                    "input" : 21,
                    "interpolation" : "LINEAR",
                    "output" : 24
                },
                {
                    "input" : 21,
                    "interpolation" : "LINEAR",
                    "output" : 25
                },
                {
                    "input" : 21,
                    "interpolation" : "LINEAR",
                    "output" : 26
                }
            ]
        },
        {
            "channels" : [
                {
                    "sampler" : 0,
                    "target" : {
                        "node" : 0,
                        "path" : "translation"
                    }
                },
                {
                    "sampler" : 1,
                    "target" : {
                        "node" : 0,
                        "path" : "rotation"
                    }
                },
                {
                    "sampler" : 2,
                    "target" : {
                        "node" : 0,
                        "path" : "scale"
                    }
                },
                {
                    "sampler" : 3,
                    "target" : {
                        "node" : 2,
                        "path" : "translation"
                    }
                },
                {
                    "sampler" : 4,
                    "target" : {
                        "node" : 2,
                        "path" : "rotation"
                    }
                }
            ],
            "name" : "Attack_2",
            "samplers" : [
                {
                    "input" : 27,
                    "interpolation" : "LINEAR",
                    "output" : 28
                },
                {
                    "input" : 27,
                    "interpolation" : "LINEAR",
                    "output" : 29
                },
                {
                    "input" : 27,
                    "interpolation" : "LINEAR",
                    "output" : 30
                },
                {
                    "input" : 31,
                    "interpolation" : "LINEAR",
                    "output" : 32
                },
                {
                    "input" : 27,
                    "interpolation" : "LINEAR",
                    "output" : 33
                }
            ]
        }
    ],
    "materials" : [
        {
            "doubleSided" : true,
            "name" : "Yoyo_Blue",
            "pbrMetallicRoughness" : {
                "baseColorFactor" : [
                    0.11193227767944336,
                    0.9822507500648499,
                    0.9301111698150635,
                    1
                ],
                "metallicFactor" : 0,
                "roughnessFactor" : 0.5
            }
        },
        {
            "doubleSided" : true,
            "name" : "Yoyo_DeepBlue",
            "pbrMetallicRoughness" : {
                "baseColorFactor" : [
                    0.05951124429702759,
                    0.2917707562446594,
                    0.37626221776008606,
                    1
                ],
                "metallicFactor" : 0,
                "roughnessFactor" : 0.5
            }
        }
    ],
    "meshes" : [
        {
            "name" : "YoYo",
            "primitives" : [
                {
                    "attributes" : {
                        "POSITION" : 0,
                        "NORMAL" : 1,
                        "TANGENT" : 2,
                        "TEXCOORD_0" : 3,
                        "JOINTS_0" : 4,
                        "WEIGHTS_0" : 5
                    },
                    "indices" : 6,
                    "material" : 0
                },
                {
                    "attributes" : {
                        "POSITION" : 7,
                        "NORMAL" : 8,
                        "TANGENT" : 9,
                        "TEXCOORD_0" : 10,
                        "JOINTS_0" : 11,
                        "WEIGHTS_0" : 12
                    },
                    "indices" : 13,
                    "material" : 1
                }
            ]
        }
    ],
    "skins" : [
        {
            "inverseBindMatrices" : 14,
            "joints" : [
                0
            ],
            "name" : "YoYoSkeleton"
        }
    ],
    "accessors" : [
        {
            "bufferView" : 0,
            "componentType" : 5126,
            "count" : 64,
            "max" : [
                1.114166498184204,
                1.114166498184204,
                0.31430840492248535
            ],
            "min" : [
                -1.114166498184204,
                -1.1141667366027832,
                -0.3143082857131958
            ],
            "type" : "VEC3"
        },
        {
            "bufferView" : 1,
            "componentType" : 5126,
            "count" : 64,
            "type" : "VEC3"
        },
        {
            "bufferView" : 2,
            "componentType" : 5126,
            "count" : 64,
            "type" : "VEC4"
        },
        {
            "bufferView" : 3,
            "componentType" : 5126,
            "count" : 64,
            "type" : "VEC2"
        },
        {
            "bufferView" : 4,
            "componentType" : 5121,
            "count" : 64,
            "type" : "VEC4"
        },
        {
            "bufferView" : 5,
            "componentType" : 5126,
            "count" : 64,
            "type" : "VEC4"
        },
        {
            "bufferView" : 6,
            "componentType" : 5123,
            "count" : 96,
            "type" : "SCALAR"
        },
        {
            "bufferView" : 7,
            "componentType" : 5126,
            "count" : 64,
            "max" : [
                1.114166498184204,
                1.114166498184204,
                0.31430840492248535
            ],
            "min" : [
                -1.114166498184204,
                -1.1141667366027832,
                -0.3143082857131958
            ],
            "type" : "VEC3"
        },
        {
            "bufferView" : 8,
            "componentType" : 5126,
            "count" : 64,
            "type" : "VEC3"
        },
        {
            "bufferView" : 9,
            "componentType" : 5126,
            "count" : 64,
            "type" : "VEC4"
        },
        {
            "bufferView" : 10,
            "componentType" : 5126,
            "count" : 64,
            "type" : "VEC2"
        },
        {
            "bufferView" : 11,
            "componentType" : 5121,
            "count" : 64,
            "type" : "VEC4"
        },
        {
            "bufferView" : 12,
            "componentType" : 5126,
            "count" : 64,
            "type" : "VEC4"
        },
        {
            "bufferView" : 13,
            "componentType" : 5123,
            "count" : 96,
            "type" : "SCALAR"
        },
        {
            "bufferView" : 14,
            "componentType" : 5126,
            "count" : 1,
            "type" : "MAT4"
        },
        {
            "bufferView" : 15,
            "componentType" : 5126,
            "count" : 33,
            "max" : [
                0.5333333333333333
            ],
            "min" : [
                0
            ],
            "type" : "SCALAR"
        },
        {
            "bufferView" : 16,
            "componentType" : 5126,
            "count" : 33,
            "type" : "VEC3"
        },
        {
            "bufferView" : 17,
            "componentType" : 5126,
            "count" : 33,
            "type" : "VEC4"
        },
        {
            "bufferView" : 18,
            "componentType" : 5126,
            "count" : 33,
            "type" : "VEC3"
        },
        {
            "bufferView" : 19,
            "componentType" : 5126,
            "count" : 33,
            "type" : "VEC3"
        },
        {
            "bufferView" : 20,
            "componentType" : 5126,
            "count" : 33,
            "type" : "VEC4"
        },
        {
            "bufferView" : 21,
            "componentType" : 5126,
            "count" : 38,
            "max" : [
                0.6166666666666667
            ],
            "min" : [
                0
            ],
            "type" : "SCALAR"
        },
        {
            "bufferView" : 22,
            "componentType" : 5126,
            "count" : 38,
            "type" : "VEC3"
        },
        {
            "bufferView" : 23,
            "componentType" : 5126,
            "count" : 38,
            "type" : "VEC4"
        },
        {
            "bufferView" : 24,
            "componentType" : 5126,
            "count" : 38,
            "type" : "VEC3"
        },
        {
            "bufferView" : 25,
            "componentType" : 5126,
            "count" : 38,
            "type" : "VEC3"
        },
        {
            "bufferView" : 26,
            "componentType" : 5126,
            "count" : 38,
            "type" : "VEC4"
        },
        {
            "bufferView" : 27,
            "componentType" : 5126,
            "count" : 45,
            "max" : [
                0.7333333333333333
            ],
            "min" : [
                0
            ],
            "type" : "SCALAR"
        },
        {
            "bufferView" : 28,
            "componentType" : 5126,
            "count" : 45,
            "type" : "VEC3"
        },
        {
            "bufferView" : 29,
            "componentType" : 5126,
            "count" : 45,
            "type" : "VEC4"
        },
        {
            "bufferView" : 30,
            "componentType" : 5126,
            "count" : 45,
            "type" : "VEC3"
        },
        {
            "bufferView" : 31,
            "componentType" : 5126,
            "count" : 42,
            "max" : [
                0.6833333333333333
            ],
            "min" : [
                0
            ],
            "type" : "SCALAR"
        },
        {
            "bufferView" : 32,
            "componentType" : 5126,
            "count" : 42,
            "type" : "VEC3"
        },
        {
            "bufferView" : 33,
            "componentType" : 5126,
            "count" : 45,
            "type" : "VEC4"
        }
    ],
    "bufferViews" : [
        {
            "buffer" : 0,
            "byteLength" : 768,
            "byteOffset" : 0
        },
        {
            "buffer" : 0,
            "byteLength" : 768,
            "byteOffset" : 768
        },
        {
            "buffer" : 0,
            "byteLength" : 1024,
            "byteOffset" : 1536
        },
        {
            "buffer" : 0,
            "byteLength" : 512,
            "byteOffset" : 2560
        },
        {
            "buffer" : 0,
            "byteLength" : 256,
            "byteOffset" : 3072
        },
        {
            "buffer" : 0,
            "byteLength" : 1024,
            "byteOffset" : 3328
        },
        {
            "buffer" : 0,
            "byteLength" : 192,
            "byteOffset" : 4352
        },
        {
            "buffer" : 0,
            "byteLength" : 768,
            "byteOffset" : 4544
        },
        {
            "buffer" : 0,
            "byteLength" : 768,
            "byteOffset" : 5312
        },
        {
            "buffer" : 0,
            "byteLength" : 1024,
            "byteOffset" : 6080
        },
        {
            "buffer" : 0,
            "byteLength" : 512,
            "byteOffset" : 7104
        },
        {
            "buffer" : 0,
            "byteLength" : 256,
            "byteOffset" : 7616
        },
        {
            "buffer" : 0,
            "byteLength" : 1024,
            "byteOffset" : 7872
        },
        {
            "buffer" : 0,
            "byteLength" : 192,
            "byteOffset" : 8896
        },
        {
            "buffer" : 0,
            "byteLength" : 64,
            "byteOffset" : 9088
        },
        {
            "buffer" : 0,
            "byteLength" : 132,
            "byteOffset" : 9152
        },
        {
            "buffer" : 0,
            "byteLength" : 396,
            "byteOffset" : 9284
        },
        {
            "buffer" : 0,
            "byteLength" : 528,
            "byteOffset" : 9680
        },
        {
            "buffer" : 0,
            "byteLength" : 396,
            "byteOffset" : 10208
        },
        {
            "buffer" : 0,
            "byteLength" : 396,
            "byteOffset" : 10604
        },
        {
            "buffer" : 0,
            "byteLength" : 528,
            "byteOffset" : 11000
        },
        {
            "buffer" : 0,
            "byteLength" : 152,
            "byteOffset" : 11528
        },
        {
            "buffer" : 0,
            "byteLength" : 456,
            "byteOffset" : 11680
        },
        {
            "buffer" : 0,
            "byteLength" : 608,
            "byteOffset" : 12136
        },
        {
            "buffer" : 0,
            "byteLength" : 456,
            "byteOffset" : 12744
        },
        {
            "buffer" : 0,
            "byteLength" : 456,
            "byteOffset" : 13200
        },
        {
            "buffer" : 0,
            "byteLength" : 608,
            "byteOffset" : 13656
        },
        {
            "buffer" : 0,
            "byteLength" : 180,
            "byteOffset" : 14264
        },
        {
            "buffer" : 0,
            "byteLength" : 540,
            "byteOffset" : 14444
        },
        {
            "buffer" : 0,
            "byteLength" : 720,
            "byteOffset" : 14984
        },
        {
            "buffer" : 0,
            "byteLength" : 540,
            "byteOffset" : 15704
        },
        {
            "buffer" : 0,
            "byteLength" : 168,
            "byteOffset" : 16244
        },
        {
            "buffer" : 0,
            "byteLength" : 504,
            "byteOffset" : 16412
        },
        {
            "buffer" : 0,
            "byteLength" : 720,
            "byteOffset" : 16916
        }
    ],
    "buffers" : [
        {
            "byteLength" : 17636,
            "uri" : "data:application/octet-stream;base64,"
        }
    ]
}
